STARTFONT 1.0
COMMENT Contributed by Hassan Shaikley<hassan.shaikley@gmail.com>
COMMENT $Id: 5x5.bdf,v 1.5 2055-08-26 18:05:49+01 mgk25 Rel $
FONT -Misc-Fixed-Five-Five-R-Normal--5-50-75-75-C-50-ISO10646-1
SIZE 5 75 75
FONTBOUNDINGBOX 5 5 0 -1
STARTPROPERTIES 23
FONTNAME_REGISTRY ""
FOUNDRY "Misc"
FAMILY_NAME "Fixed"
WEIGHT_NAME "Medium"
SLANT "R"
SETWIDTH_NAME "Normal"
ADD_STYLE_NAME ""
PIXEL_SIZE 5
POINT_SIZE 50
RESOLUTION_X 75
RESOLUTION_Y 75
SPACING "C"
AVERAGE_WIDTH 50
CHARSET_REGISTRY "ISO10646"
CHARSET_ENCODING "1"
FONT_ASCENT 5
FONT_DESCENT 1
DESTINATION 1
COPYRIGHT "Public domain font. Share and enjoy."
CAP_HEIGHT 5
X_HEIGHT 5
DEFAULT_CHAR 0
ENDPROPERTIES
CHARS 62
STARTCHAR  
ENCODING 32
SWIDTH 540 0
DWIDTH 5 0
BBX 5 5 0 -1
BITMAP
00
00
00
00
00
ENDCHAR
STARTCHAR !
ENCODING 33
SWIDTH 540 0
DWIDTH 5 0
BBX 5 5 0 -1
BITMAP
60
60
60
00
60
ENDCHAR
STARTCHAR "
ENCODING 34
SWIDTH 540 0
DWIDTH 5 0
BBX 5 5 0 -1
BITMAP
50
50
50
00
00
ENDCHAR
STARTCHAR #
ENCODING 35
SWIDTH 540 0
DWIDTH 5 0
BBX 5 5 0 -1
BITMAP
50
f8
50
f8
50
ENDCHAR
STARTCHAR $
ENCODING 36
SWIDTH 540 0
DWIDTH 5 0
BBX 5 5 0 -1
BITMAP
70
a0
70
28
70
ENDCHAR
STARTCHAR %
ENCODING 37
SWIDTH 540 0
DWIDTH 5 0
BBX 5 5 0 -1
BITMAP
c8
d0
20
58
98
ENDCHAR
STARTCHAR &
ENCODING 38
SWIDTH 540 0
DWIDTH 5 0
BBX 5 5 0 -1
BITMAP
60
90
68
90
68
ENDCHAR
STARTCHAR '
ENCODING 39
SWIDTH 540 0
DWIDTH 5 0
BBX 5 5 0 -1
BITMAP
10
10
10
00
00
ENDCHAR
STARTCHAR (
ENCODING 40
SWIDTH 540 0
DWIDTH 5 0
BBX 5 5 0 -1
BITMAP
30
40
40
40
30
ENDCHAR
STARTCHAR )
ENCODING 41
SWIDTH 540 0
DWIDTH 5 0
BBX 5 5 0 -1
BITMAP
60
10
10
10
60
ENDCHAR
STARTCHAR *
ENCODING 42
SWIDTH 540 0
DWIDTH 5 0
BBX 5 5 0 -1
BITMAP
00
a8
70
a8
00
ENDCHAR
STARTCHAR +
ENCODING 43
SWIDTH 540 0
DWIDTH 5 0
BBX 5 5 0 -1
BITMAP
20
20
f8
20
20
ENDCHAR
STARTCHAR ,
ENCODING 44
SWIDTH 540 0
DWIDTH 5 0
BBX 5 5 0 -1
BITMAP
00
00
20
20
40
ENDCHAR
STARTCHAR -
ENCODING 45
SWIDTH 540 0
DWIDTH 5 0
BBX 5 5 0 -1
BITMAP
00
00
f8
00
00
ENDCHAR
STARTCHAR .
ENCODING 46
SWIDTH 540 0
DWIDTH 5 0
BBX 5 5 0 -1
BITMAP
00
00
00
30
30
ENDCHAR
STARTCHAR /
ENCODING 47
SWIDTH 540 0
DWIDTH 5 0
BBX 5 5 0 -1
BITMAP
08
10
20
40
80
ENDCHAR
STARTCHAR 0
ENCODING 48
SWIDTH 540 0
DWIDTH 5 0
BBX 5 5 0 -1
BITMAP
70
98
a8
c8
70
ENDCHAR
STARTCHAR 1
ENCODING 49
SWIDTH 540 0
DWIDTH 5 0
BBX 5 5 0 -1
BITMAP
20
60
20
20
70
ENDCHAR
STARTCHAR 2
ENCODING 50
SWIDTH 540 0
DWIDTH 5 0
BBX 5 5 0 -1
BITMAP
60
90
20
40
f0
ENDCHAR
STARTCHAR 3
ENCODING 51
SWIDTH 540 0
DWIDTH 5 0
BBX 5 5 0 -1
BITMAP
e0
30
60
30
e0
ENDCHAR
STARTCHAR 4
ENCODING 52
SWIDTH 540 0
DWIDTH 5 0
BBX 5 5 0 -1
BITMAP
80
90
f8
10
10
ENDCHAR
STARTCHAR 5
ENCODING 53
SWIDTH 540 0
DWIDTH 5 0
BBX 5 5 0 -1
BITMAP
f0
80
e0
30
e0
ENDCHAR
STARTCHAR 6
ENCODING 54
SWIDTH 540 0
DWIDTH 5 0
BBX 5 5 0 -1
BITMAP
60
80
e0
90
60
ENDCHAR
STARTCHAR 7
ENCODING 55
SWIDTH 540 0
DWIDTH 5 0
BBX 5 5 0 -1
BITMAP
f0
10
20
40
80
ENDCHAR
STARTCHAR 8
ENCODING 56
SWIDTH 540 0
DWIDTH 5 0
BBX 5 5 0 -1
BITMAP
60
90
70
88
70
ENDCHAR
STARTCHAR 9
ENCODING 57
SWIDTH 540 0
DWIDTH 5 0
BBX 5 5 0 -1
BITMAP
70
88
78
08
70
ENDCHAR
STARTCHAR :
ENCODING 58
SWIDTH 540 0
DWIDTH 5 0
BBX 5 5 0 -1
BITMAP
00
60
00
60
00
ENDCHAR
STARTCHAR ;
ENCODING 59
SWIDTH 540 0
DWIDTH 5 0
BBX 5 5 0 -1
BITMAP
00
60
00
60
40
ENDCHAR
STARTCHAR <
ENCODING 60
SWIDTH 540 0
DWIDTH 5 0
BBX 5 5 0 -1
BITMAP
18
30
c0
60
18
ENDCHAR
STARTCHAR =
ENCODING 61
SWIDTH 540 0
DWIDTH 5 0
BBX 5 5 0 -1
BITMAP
00
70
00
70
00
ENDCHAR
STARTCHAR >
ENCODING 62
SWIDTH 540 0
DWIDTH 5 0
BBX 5 5 0 -1
BITMAP
c0
30
18
60
c0
ENDCHAR
STARTCHAR ?
ENCODING 63
SWIDTH 540 0
DWIDTH 5 0
BBX 5 5 0 -1
BITMAP
70
18
30
00
60
ENDCHAR
STARTCHAR @
ENCODING 64
SWIDTH 540 0
DWIDTH 5 0
BBX 5 5 0 -1
BITMAP
70
b0
a8
a8
70
ENDCHAR
STARTCHAR a
ENCODING 97
SWIDTH 540 0
DWIDTH 5 0
BBX 5 5 0 -1
BITMAP
60
90
f0
90
90
ENDCHAR
STARTCHAR A
ENCODING 65
SWIDTH 540 0
DWIDTH 5 0
BBX 5 5 0 -1
BITMAP
60
90
f0
90
90
ENDCHAR
STARTCHAR b
ENCODING 98
SWIDTH 540 0
DWIDTH 5 0
BBX 5 5 0 -1
BITMAP
e0
90
e0
90
e0
ENDCHAR
STARTCHAR B
ENCODING 66
SWIDTH 540 0
DWIDTH 5 0
BBX 5 5 0 -1
BITMAP
e0
90
e0
90
e0
ENDCHAR
STARTCHAR c
ENCODING 99
SWIDTH 540 0
DWIDTH 5 0
BBX 5 5 0 -1
BITMAP
70
80
80
80
70
ENDCHAR
STARTCHAR C
ENCODING 67
SWIDTH 540 0
DWIDTH 5 0
BBX 5 5 0 -1
BITMAP
70
80
80
80
70
ENDCHAR
STARTCHAR d
ENCODING 100
SWIDTH 540 0
DWIDTH 5 0
BBX 5 5 0 -1
BITMAP
e0
90
90
90
e0
ENDCHAR
STARTCHAR D
ENCODING 68
SWIDTH 540 0
DWIDTH 5 0
BBX 5 5 0 -1
BITMAP
e0
90
90
90
e0
ENDCHAR
STARTCHAR e
ENCODING 101
SWIDTH 540 0
DWIDTH 5 0
BBX 5 5 0 -1
BITMAP
70
80
f0
80
70
ENDCHAR
STARTCHAR E
ENCODING 69
SWIDTH 540 0
DWIDTH 5 0
BBX 5 5 0 -1
BITMAP
70
80
f0
80
70
ENDCHAR
STARTCHAR f
ENCODING 102
SWIDTH 540 0
DWIDTH 5 0
BBX 5 5 0 -1
BITMAP
70
80
f0
80
80
ENDCHAR
STARTCHAR F
ENCODING 70
SWIDTH 540 0
DWIDTH 5 0
BBX 5 5 0 -1
BITMAP
70
80
f0
80
80
ENDCHAR
STARTCHAR g
ENCODING 103
SWIDTH 540 0
DWIDTH 5 0
BBX 5 5 0 -1
BITMAP
60
80
b0
90
60
ENDCHAR
STARTCHAR G
ENCODING 71
SWIDTH 540 0
DWIDTH 5 0
BBX 5 5 0 -1
BITMAP
60
80
b0
90
60
ENDCHAR
STARTCHAR h
ENCODING 104
SWIDTH 540 0
DWIDTH 5 0
BBX 5 5 0 -1
BITMAP
90
90
f0
90
90
ENDCHAR
STARTCHAR H
ENCODING 72
SWIDTH 540 0
DWIDTH 5 0
BBX 5 5 0 -1
BITMAP
90
90
f0
90
90
ENDCHAR
STARTCHAR i
ENCODING 105
SWIDTH 540 0
DWIDTH 5 0
BBX 5 5 0 -1
BITMAP
70
20
20
20
70
ENDCHAR
STARTCHAR I
ENCODING 73
SWIDTH 540 0
DWIDTH 5 0
BBX 5 5 0 -1
BITMAP
70
20
20
20
70
ENDCHAR
STARTCHAR j
ENCODING 106
SWIDTH 540 0
DWIDTH 5 0
BBX 5 5 0 -1
BITMAP
10
10
10
90
60
ENDCHAR
STARTCHAR J
ENCODING 74
SWIDTH 540 0
DWIDTH 5 0
BBX 5 5 0 -1
BITMAP
10
10
10
90
60
ENDCHAR
STARTCHAR k
ENCODING 107
SWIDTH 540 0
DWIDTH 5 0
BBX 5 5 0 -1
BITMAP
90
a0
c0
a0
90
ENDCHAR
STARTCHAR K
ENCODING 75
SWIDTH 540 0
DWIDTH 5 0
BBX 5 5 0 -1
BITMAP
90
a0
c0
a0
90
ENDCHAR
STARTCHAR l
ENCODING 108
SWIDTH 540 0
DWIDTH 5 0
BBX 5 5 0 -1
BITMAP
80
80
80
80
f0
ENDCHAR
STARTCHAR L
ENCODING 76
SWIDTH 540 0
DWIDTH 5 0
BBX 5 5 0 -1
BITMAP
80
80
80
80
f0
ENDCHAR
STARTCHAR m
ENCODING 109
SWIDTH 540 0
DWIDTH 5 0
BBX 5 5 0 -1
BITMAP
88
d8
f8
a8
88
ENDCHAR
STARTCHAR M
ENCODING 77
SWIDTH 540 0
DWIDTH 5 0
BBX 5 5 0 -1
BITMAP
88
d8
f8
a8
88
ENDCHAR
STARTCHAR n
ENCODING 110
SWIDTH 540 0
DWIDTH 5 0
BBX 5 5 0 -1
BITMAP
90
d0
b0
90
90
ENDCHAR
STARTCHAR N
ENCODING 78
SWIDTH 540 0
DWIDTH 5 0
BBX 5 5 0 -1
BITMAP
90
d0
b0
90
90
ENDCHAR
STARTCHAR o
ENCODING 111
SWIDTH 540 0
DWIDTH 5 0
BBX 5 5 0 -1
BITMAP
60
90
90
90
60
ENDCHAR
STARTCHAR O
ENCODING 79
SWIDTH 540 0
DWIDTH 5 0
BBX 5 5 0 -1
BITMAP
60
90
90
90
60
ENDCHAR
STARTCHAR p
ENCODING 112
SWIDTH 540 0
DWIDTH 5 0
BBX 5 5 0 -1
BITMAP
e0
90
e0
80
80
ENDCHAR
STARTCHAR P
ENCODING 80
SWIDTH 540 0
DWIDTH 5 0
BBX 5 5 0 -1
BITMAP
e0
90
e0
80
80
ENDCHAR
STARTCHAR q
ENCODING 113
SWIDTH 540 0
DWIDTH 5 0
BBX 5 5 0 -1
BITMAP
70
88
a8
90
68
ENDCHAR
STARTCHAR Q
ENCODING 81
SWIDTH 540 0
DWIDTH 5 0
BBX 5 5 0 -1
BITMAP
70
88
a8
90
68
ENDCHAR
STARTCHAR r
ENCODING 114
SWIDTH 540 0
DWIDTH 5 0
BBX 5 5 0 -1
BITMAP
e0
90
e0
a0
90
ENDCHAR
STARTCHAR R
ENCODING 82
SWIDTH 540 0
DWIDTH 5 0
BBX 5 5 0 -1
BITMAP
e0
90
e0
a0
90
ENDCHAR
STARTCHAR s
ENCODING 115
SWIDTH 540 0
DWIDTH 5 0
BBX 5 5 0 -1
BITMAP
70
80
e0
10
e0
ENDCHAR
STARTCHAR S
ENCODING 83
SWIDTH 540 0
DWIDTH 5 0
BBX 5 5 0 -1
BITMAP
70
80
e0
10
e0
ENDCHAR
STARTCHAR t
ENCODING 116
SWIDTH 540 0
DWIDTH 5 0
BBX 5 5 0 -1
BITMAP
f0
20
20
20
20
ENDCHAR
STARTCHAR T
ENCODING 84
SWIDTH 540 0
DWIDTH 5 0
BBX 5 5 0 -1
BITMAP
f0
20
20
20
20
ENDCHAR
STARTCHAR u
ENCODING 117
SWIDTH 540 0
DWIDTH 5 0
BBX 5 5 0 -1
BITMAP
90
90
90
90
60
ENDCHAR
STARTCHAR U
ENCODING 85
SWIDTH 540 0
DWIDTH 5 0
BBX 5 5 0 -1
BITMAP
90
90
90
90
60
ENDCHAR
STARTCHAR v
ENCODING 118
SWIDTH 540 0
DWIDTH 5 0
BBX 5 5 0 -1
BITMAP
88
88
50
50
20
ENDCHAR
STARTCHAR V
ENCODING 86
SWIDTH 540 0
DWIDTH 5 0
BBX 5 5 0 -1
BITMAP
88
88
50
50
20
ENDCHAR
STARTCHAR w
ENCODING 119
SWIDTH 540 0
DWIDTH 5 0
BBX 5 5 0 -1
BITMAP
88
88
a8
a8
50
ENDCHAR
STARTCHAR W
ENCODING 87
SWIDTH 540 0
DWIDTH 5 0
BBX 5 5 0 -1
BITMAP
88
88
a8
a8
50
ENDCHAR
STARTCHAR x
ENCODING 120
SWIDTH 540 0
DWIDTH 5 0
BBX 5 5 0 -1
BITMAP
88
50
20
50
88
ENDCHAR
STARTCHAR X
ENCODING 88
SWIDTH 540 0
DWIDTH 5 0
BBX 5 5 0 -1
BITMAP
88
50
20
50
88
ENDCHAR
STARTCHAR y
ENCODING 121
SWIDTH 540 0
DWIDTH 5 0
BBX 5 5 0 -1
BITMAP
88
50
20
20
20
ENDCHAR
STARTCHAR Y
ENCODING 89
SWIDTH 540 0
DWIDTH 5 0
BBX 5 5 0 -1
BITMAP
88
50
20
20
20
ENDCHAR
STARTCHAR z
ENCODING 122
SWIDTH 540 0
DWIDTH 5 0
BBX 5 5 0 -1
BITMAP
f8
10
20
80
f8
ENDCHAR
STARTCHAR Z
ENCODING 90
SWIDTH 540 0
DWIDTH 5 0
BBX 5 5 0 -1
BITMAP
f8
10
20
80
f8
ENDCHAR
STARTCHAR [
ENCODING 91
SWIDTH 540 0
DWIDTH 5 0
BBX 5 5 0 -1
BITMAP
78
60
60
60
78
ENDCHAR
STARTCHAR \
ENCODING 92
SWIDTH 540 0
DWIDTH 5 0
BBX 5 5 0 -1
BITMAP
180
c0
60
30
18
ENDCHAR
STARTCHAR ]
ENCODING 93
SWIDTH 540 0
DWIDTH 5 0
BBX 5 5 0 -1
BITMAP
78
18
18
18
78
ENDCHAR
STARTCHAR ^
ENCODING 94
SWIDTH 540 0
DWIDTH 5 0
BBX 5 5 0 -1
BITMAP
20
50
88
00
00
ENDCHAR
STARTCHAR _
ENCODING 95
SWIDTH 540 0
DWIDTH 5 0
BBX 5 5 0 -1
BITMAP
00
00
00
00
f8
ENDCHAR
ENDFONT
